<?xml version="1.0" encoding="utf-8"?>
<!-- Generator: Adobe Illustrator 26.5.0, SVG Export Plug-In . SVG Version: 6.00 Build 0)  -->
<svg version="1.1" id="Layer_1" xmlns="http://www.w3.org/2000/svg" xmlns:xlink="http://www.w3.org/1999/xlink" x="0px" y="0px"
	 viewBox="0 0 26 26" style="enable-background:new 0 0 26 26;" xml:space="preserve">
<style type="text/css">
	.st0{fill:#C720B1;}
</style>
<path class="st0" d="M12.6,6.3c-3.5,0-6.3,2.8-6.3,6.3c0,3.5,2.8,6.3,6.3,6.3c3.5,0,6.3-2.8,6.3-6.3C18.9,9.1,16.1,6.3,12.6,6.3z
	 M12.6,15.8c-1.7,0-3.2-1.4-3.2-3.2c0-1.7,1.4-3.2,3.2-3.2c1.7,0,3.2,1.4,3.2,3.2C15.8,14.3,14.3,15.8,12.6,15.8z M17.3,0H7.9
	C3.5,0,0,3.5,0,7.9v9.5c0,4.4,3.5,7.9,7.9,7.9h9.5c4.4,0,7.9-3.5,7.9-7.9V7.9C25.2,3.5,21.7,0,17.3,0z M22.1,17.3
	c0,2.6-2.1,4.7-4.7,4.7H7.9c-2.6,0-4.7-2.1-4.7-4.7V7.9c0-2.6,2.1-4.7,4.7-4.7h9.5c2.6,0,4.7,2.1,4.7,4.7V17.3z M18.9,4.7
	c-0.9,0-1.6,0.7-1.6,1.6c0,0.9,0.7,1.6,1.6,1.6c0.9,0,1.6-0.7,1.6-1.6C20.5,5.4,19.8,4.7,18.9,4.7z"/>
</svg>
