<?xml version="1.0" encoding="utf-8"?>
<!-- Generator: Adobe Illustrator 26.5.0, SVG Export Plug-In . SVG Version: 6.00 Build 0)  -->
<svg version="1.1" id="Layer_1" xmlns="http://www.w3.org/2000/svg" xmlns:xlink="http://www.w3.org/1999/xlink" x="0px" y="0px"
	 viewBox="0 0 24 24" style="enable-background:new 0 0 24 24;" xml:space="preserve">
<style type="text/css">
	.st0{fill-rule:evenodd;clip-rule:evenodd;fill:#C720B1;}
</style>
<path class="st0" d="M22,5.9c-0.7,0.3-1.5,0.6-2.4,0.7c0.8-0.5,1.5-1.3,1.8-2.3c-0.8,0.5-1.7,0.8-2.6,1C18.1,4.5,17,4,15.8,4
	c-2.3,0-4.1,1.9-4.1,4.2c0,0.3,0,0.6,0.1,0.9C8.4,8.9,5.4,7.3,3.4,4.8C3,5.4,2.8,6.1,2.8,6.8c0,1.4,0.7,2.7,1.8,3.5
	c-0.7,0-1.3-0.2-1.9-0.5c0,0,0,0,0,0.1c0,2,1.4,3.7,3.3,4.1C5.8,14,5.4,14.1,5,14.1c-0.3,0-0.5,0-0.8-0.1c0.5,1.7,2,2.9,3.8,2.9
	C6.7,18,4.9,18.7,3,18.7c-0.3,0-0.7,0-1-0.1c1.8,1.2,4,1.9,6.3,1.9c7.5,0,11.7-6.3,11.7-11.8c0-0.2,0-0.4,0-0.5
	C20.8,7.5,21.4,6.8,22,5.9"/>
</svg>
