<?xml version="1.0" encoding="utf-8"?>
<!-- Generator: Adobe Illustrator 26.5.0, SVG Export Plug-In . SVG Version: 6.00 Build 0)  -->
<svg version="1.1" id="Layer_1" xmlns="http://www.w3.org/2000/svg" xmlns:xlink="http://www.w3.org/1999/xlink" x="0px" y="0px"
	 viewBox="0 0 26 26" style="enable-background:new 0 0 26 26;" xml:space="preserve">
<style type="text/css">
	.st0{fill:#C720B1;}
</style>
<path class="st0" d="M10,16.3V8.9l6.6,3.7L10,16.3z M24.7,6.5c-0.3-1.1-1.1-2-2.2-2.2c-2-0.5-9.8-0.5-9.8-0.5s-7.9,0-9.8,0.5
	C1.7,4.5,0.8,5.4,0.5,6.5C0,8.5,0,12.6,0,12.6s0,4.1,0.5,6.1c0.3,1.1,1.1,2,2.2,2.2c2,0.5,9.8,0.5,9.8,0.5s7.9,0,9.8-0.5
	c1.1-0.3,1.9-1.2,2.2-2.2c0.5-2,0.5-6.1,0.5-6.1S25.2,8.5,24.7,6.5z"/>
</svg>
