<?xml version="1.0" encoding="utf-8"?>
<!-- Generator: Adobe Illustrator 26.5.0, SVG Export Plug-In . SVG Version: 6.00 Build 0)  -->
<svg version="1.1" id="arte" xmlns="http://www.w3.org/2000/svg" xmlns:xlink="http://www.w3.org/1999/xlink" x="0px" y="0px"
	 viewBox="0 0 204.14 132.1" style="enable-background:new 0 0 204.14 132.1;" xml:space="preserve">
<style type="text/css">
	.st0{fill:#F496BB;}
	.st1{fill:none;}
</style>
<g>
	<path class="st0" d="M200.73,43.27c-1.56-2.52-4.24-3.97-7.36-3.97c-4.01,0-8.28,2.41-11.41,6.44c-1.88,2.42-4.16,6.19-6.23,10.23
		c-0.06,0-0.11,0-0.17,0c-0.44,0-0.89,0.03-1.35,0.08c1.44-2.14,2.25-4.48,2.25-6.65c0-4.35-3.04-6.63-6.04-6.63
		c-0.04,0-0.09,0-0.13,0c0.69-0.3,1.27-0.68,1.73-1.01c0.72-0.52,1.49-1.19,2.23-1.94c1.27-1.29,3.01-3.37,4.05-5.92
		c0.7-1.71,0.98-3.41,0.84-5.03c-0.19-2.18-1.13-4.15-2.72-5.7c-1.62-1.58-3.82-2.45-6.2-2.45c-2.89,0-5.49,1.29-6.94,3.45
		c-0.14,0.21-0.27,0.43-0.39,0.66c-2.63,0.55-5.34,2.02-7.75,3.72c-0.69-0.32-1.44-0.52-2.24-0.61c4.4-6.15,6.03-11.57,4.83-16.15
		c-0.84-3.2-3.04-5.69-5.9-6.64c-1.03-0.34-2.16-0.52-3.36-0.52c-2.41,0-6.18,0.74-10.46,4.25c-3.94,3.23-7.68,8.31-11.13,15.1
		c-1.28,2.53-2.41,4.84-3.41,6.97c-0.77-0.18-1.58-0.27-2.42-0.27c-3.94,0-7.58,2.03-10.41,4.67c-0.34-0.28-0.71-0.53-1.09-0.76
		c0.13-0.47,0.2-0.97,0.21-1.49c0.04-1.92-0.78-4.09-2.19-5.81c-1.76-2.13-4.23-3.37-6.95-3.49c-0.1,0-0.2-0.01-0.3-0.01
		c-1.79,0-3.58,0.7-5.63,2.01c-1.19-1.68-3.54-3.53-8.06-3.53c-1.14,0-2.36,0.11-3.74,0.33c-2.93,0.48-4.25,2.16-4.84,3.5
		c-0.37,0.82-0.78,2.29-0.24,4.04c-0.08,0.19-0.16,0.36-0.25,0.55c-0.09,0.19-0.2,0.41-0.3,0.65c-0.78,1.78-2.15,4.47-3.73,7.42
		c-0.85-0.41-1.94-0.69-3.31-0.69c-1.14,0-2.62,0.16-3.95,0.43c-1.37,0.28-3.01,0.73-4.34,1.78c-1.1-0.36-2.29-0.55-3.54-0.55
		c-0.51,0-1.03,0.03-1.56,0.09c-0.71,0.08-1.41,0.21-2.11,0.39c0.89-2.35,1.34-4.76,1.34-7.24c0-4.74-2.15-8.74-6.04-11.27
		c-3.03-1.97-6.94-2.96-11.62-2.96c-4.68,0-9.96,1.06-14.88,2.97c-5.26,2.05-9.87,4.96-13.32,8.41c-8.82,8.82-9.32,18.32-6.85,24.28
		c1.62,3.9,4.57,6.55,7.96,7.27c-0.38,0.68-0.65,1.15-0.79,1.36C9.83,64.09,9.33,65.11,9,66.15c-0.69,2.18-0.59,4.35,0.3,6.26
		c1.44,3.13,4.58,5.02,9.31,5.62c0.41,0.06,0.99,0.14,1.7,0.2c-2.88,3.03-5.32,6.3-7.03,9.48c-1.95,3.62-4.52,9.21-5.73,15.29
		c-1.3,6.55-0.68,12.02,1.85,16.25c1.63,2.72,3.98,4.81,6.98,6.21c2.87,1.34,6.36,2.02,10.36,2.02c6.82,0,13.51-2.64,19.33-7.65
		c3.84-3.29,6.96-7.42,7.77-9.51c0.77-1.99,0.72-4.07,0.25-5.94c0.04,0,0.08-0.01,0.12-0.01c3.25-0.34,5.96-1.37,8.42-3.33
		c0.68,0.55,1.61,1.03,2.85,1.25c0.51,0.09,1.07,0.13,1.68,0.13c1.17,0,5.22-0.19,8.03-2.65c0.55-0.49,1.06-1.08,1.62-1.94
		c0.74,0.67,1.59,1.21,2.52,1.6c-0.53,1.9-1,3.86-1.35,5.78c-1.25,6.77-0.75,11.46,1.55,14.76c1.86,2.66,4.77,4.12,8.21,4.12
		c3.16,0,6.19-1.24,8.78-3.59c1.96-1.78,3.65-4.16,5.02-7.07c1.79-3.81,2.88-8.24,3.08-12.47c0.07-1.48,0.04-3.19-0.22-4.95
		c1.3-0.61,2.68-1.37,4.13-2.32c0.86,0.72,1.87,1.25,2.99,1.57c-1.93,3.72-2.11,8.34-0.33,12.64c1.24,2.99,3.31,5.54,5.98,7.38
		c2.91,1.99,6.43,3.05,10.18,3.05c0,0,0,0,0,0c0.26,0,0.52-0.01,0.79-0.02c9.87-0.38,14.98-5.37,17.53-9.5
		c3.2-5.18,3.62-10.92,3.58-13.88c-0.02-1.88-0.34-3.86-0.83-5.84c1.63,0.53,3.1,0.66,4.12,0.66c3.48,0,6.8-1.11,9.82-3.25
		c1.46,0.84,3.17,1.31,5.01,1.31c1.97,0,4.52-0.52,7.19-2.45c1.06,0.46,2.24,0.71,3.52,0.75c0.17,0,0.34,0.01,0.51,0.01
		c7.67,0,12.01-4.83,13.53-9.36c0.83-2.44,0.51-5.03-0.85-6.94c-0.4-0.57-0.89-1.06-1.44-1.46c3.4-2.75,7.36-6.76,10-11.98
		c1.18-2.34,1.9-4.53,2.15-6.51C202.36,46.71,201.51,44.54,200.73,43.27z"/>
	<path class="st1" d="M52.53,60.69c2.71-0.25,4.43-3.74,5.1-5.25c0.8-1.8,0.72-4.35-1.86-4.25c-2.17,0.08-3.78,2.81-4.34,4
		C50.69,56.75,49.31,60.99,52.53,60.69z"/>
	<path class="st1" d="M92.45,92.46c-0.11,0.1-0.18,0.11-0.21,0.07c-4.61,10.62-7.32,20.48-3.9,20.48c3.89,0,6.85-16.17,4.59-20.46
		C92.77,92.51,92.61,92.49,92.45,92.46z"/>
	<path class="st1" d="M60.01,83.79c-0.48-0.17-0.98-0.17-1.49-0.01c0.7,0.69,1.63,1.42,2.58,1.61
		C61.15,84.53,60.8,84.08,60.01,83.79z"/>
	<path class="st1" d="M56.12,85.72c-0.47,0.62-0.92,1.38-1.33,2.26c-1.26,2.66-0.72,4.8,0.48,5.08c0.89,0.21,3.2-0.58,4.55-3.74
		c0.19-0.44,0.36-0.85,0.51-1.22C59.18,88.21,57.13,86.86,56.12,85.72z"/>
	<path class="st1" d="M27.21,58.14c-1.72,3.45-3.43,6.79-4.81,9.37c9.6-0.62,15.14-8.14,13.31-9.96
		C33.59,55.43,29.65,56.9,27.21,58.14z"/>
	<path class="st1" d="M103.71,41.97c-2.92-0.28-5.86,3.3-7.16,6.82C102.05,48.87,106.21,42.21,103.71,41.97z"/>
	<path class="st1" d="M146.47,17.86c-2.77,0-8.52,7.86-12.72,15.7C139.35,30.54,148.93,17.86,146.47,17.86z"/>
	<path class="st1" d="M117.15,50.83c2.68,0,3.91-2.15,5.08-4.19c0.93-1.61,1.32-4.53-0.73-5.29c-2.23-0.82-4.3,1.95-5.04,3.3
		C115.16,47.02,114.8,50.83,117.15,50.83z"/>
	<path class="st1" d="M110.4,67.03c-2.67-2.67-9.57,7.61-15.23,19.12C99.14,82.37,112.59,69.21,110.4,67.03z"/>
	<path class="st1" d="M183.8,62.28c2.58-2.1,8.33-8.11,8.24-10.89C191.92,47.57,187.38,54.64,183.8,62.28z"/>
	<path class="st1" d="M157.98,68.32c-1.9-0.15-4.81,2.89-6.31,5.99C155.55,74.03,160.54,68.52,157.98,68.32z"/>
	<path class="st1" d="M172.71,66.46c-1.76-0.29-3.89,2.24-5.4,5.45c-1.26,2.66-0.82,4.26,0.39,4.49c1.44,0.27,4.07-1.26,5.43-4.42
		C174.71,68.24,174.35,66.73,172.71,66.46z"/>
	<path class="st1" d="M141.34,70.57c-1.74-1.05-3.84,5.18-3.06,7.49C140.15,76.25,143.22,71.71,141.34,70.57z"/>
	<path d="M15.77,55.07c0.85-0.85-3.22-0.79-0.86-6.01c2.39-5.29,13.66-16.49,23.31-16.49c10.75,0-0.85,12.3-6.47,16.35
		c2.12-4.37,3.76-7.83,4.11-8.62c1.12-2.54-3.09-6.53-7.29-2.61c-0.92,0.86,1.8-0.6-0.68,5.28c0,0-11.36,21.2-12.66,23.17
		c-0.91,1.38-3.12,5.4,4.1,6.31c0,0,0.01,0,0.01,0c2.13,0.34,12.14,1.48,19.17-5.55c11.11-11.11-1.2-15.01-2.21-15.01
		c-0.65,0,14.14-7.1,14.14-18.92c0-13.05-25.02-10.07-36.23,1.14C1.46,46.85,10.51,60.33,15.77,55.07z M22.4,67.51
		c1.38-2.58,3.09-5.92,4.81-9.37c2.44-1.24,6.39-2.71,8.5-0.59C37.54,59.37,31.99,66.89,22.4,67.51z"/>
	<path d="M50.46,66.02c3.17-0.46,5.41-2.07,7.02-3.95c-0.12,1.61,0.39,2.65,1.89,2.65c2.84,0,5.75-1.7,8.34-3.91
		c-1.04,1.87-1.65,3.01-1.56,3.01c0.52-0.01,5.12-0.77,6.2-0.95c0.17-0.03,2.43-3.92,5.29-8.96c1.05,0.6,2.38,1.91,3.83,4.68
		c2.76,5.27,7.49,0.36,9.9-3.32c0.84,2.6,3.23,4.22,7.43,3.59c4.26-0.63,7.93-4.42,10.66-8.14c-0.03,3.2,1.17,6.28,5.89,5.91
		c3.54-0.28,5.99-2.7,7.67-5.49c0.2,2.4,1.45,3.76,4.07,3.76c7,0,9.86-7.8,7.55-8.79c0,0-3.33,4.72-5.36,2.7
		c-1.2-1.2-0.24-5.07,1.75-9.7c2.87-1.14,8.04-3.85,13.27-9.58c11.67-12.82,8.06-18.27,5.72-19.05c-2.33-0.78-9.76-0.48-18.13,16.02
		c-2.43,4.79-4.55,9.26-6.11,13.19c-0.69-1.65-2.14-3.4-4.74-3.4c-4.53,0-9.19,5.32-10.48,8.57c-2.17,3.59-6.96,10.43-11.99,10.43
		c-1.88,0-2.67-1.24-2.72-2.97c3.22-0.22,9.24-2.07,11.67-6.92c2.38-4.75-0.91-7.18-4.68-6.62c-3.63,0.54-7.18,2.01-10.3,8.26
		c-0.62,1.25-1.06,2.51-1.3,3.73c-0.76,1.7-2.14,4.1-3.86,4.1c-3.64,0-3.38-5.04-5.76-6.64c2.82-1.31,6.93-3.96,12.21-9.24
		c6.24-6.24,8.77-5.63,10.05-5.63c0.78,0-0.3-3.8-3.5-3.94c-2.81-0.12-11.7,8.98-15.59,11.73c3.01-5.41,5.4-9.73,5.46-9.87
		c0.17-0.38,1.63-4.44-6.46-3.12c-1.48,0.24,0.26,0.52-0.15,2.2c-0.41,1.68-0.92,2.52-1.22,3.23c-1.73,3.97-5.93,11.59-9.63,18.18
		c-3.13,3.78-6.92,7.72-9.16,7.74c-1.81,0.02,6.44-14.43,7.24-15.37c1.37-1.59-4.7-0.93-5.55,0.67c0,0-1.1,1.75-2.48,4.22
		c-0.34-2.36-2.09-3.99-5.37-3.61c-5.79,0.67-9.55,6.13-11.09,9.77C44.91,58.65,42.59,67.15,50.46,66.02z M146.47,17.86
		c2.46,0-7.12,12.67-12.72,15.7C137.94,25.72,143.7,17.86,146.47,17.86z M116.46,44.65c0.74-1.35,2.82-4.12,5.04-3.3
		c2.04,0.76,1.65,3.67,0.73,5.29c-1.17,2.04-2.4,4.19-5.08,4.19C114.8,50.83,115.16,47.02,116.46,44.65z M103.71,41.97
		c2.51,0.24-1.65,6.9-7.16,6.82C97.85,45.27,100.79,41.69,103.71,41.97z M51.43,55.19c0.56-1.19,2.16-3.91,4.34-4
		c2.59-0.1,2.67,2.45,1.86,4.25c-0.67,1.51-2.39,5-5.1,5.25C49.31,60.99,50.69,56.75,51.43,55.19z"/>
	<path d="M149.3,34.45c-0.19,0.1-0.34,0.26-0.44,0.45c-1.24,2.32-9.7,18.13-9.74,18.47c-0.05,0.37,2.07,2.27,4.98-0.55
		c0.03-0.03,0.07-0.07,0.11-0.12c1.72-1.05,14.35-15.52,15.6-14.26c0.34,0.34-11.65,19.76-0.53,19.76c7.28,0,11.54-5.75,11.54-8.79
		c0-3.46-3.27,3.23-8.44,3.23c-4.12,0,3.29-14.34,3.88-16.22c0.38-1.21,1.96-6.6-1.75-6.15c-3.89,0.47-9.59,5.31-12.92,8.88
		c0.85-1.67,1.49-2.95,1.7-3.39C153.91,34.42,153.17,32.29,149.3,34.45z"/>
	<path d="M172.48,27.21c-1.74-1.69-5.45-0.66-4.62,1.37c1.41,3.46,1.05,5.36-0.23,8.7C166.72,39.63,176.7,31.32,172.48,27.21z"/>
	<path d="M44.37,102.93c-1.42,2.36-7.1,11.95-16.17,11.95c-11.86,0-8.54-11.71-4.39-19.96c4.56-9.06,19.03-22.04,21.01-17.08
		c1.1,2.75-6.23,8.01-9.84,7.55c0,0-0.23,6.59,6.23,4.9c6.46-1.69,15.36-14.83,5.4-18.4c-8.93-3.2-23.18,8.85-28.36,18.5
		c-6.87,12.77-11.01,31.45,8.49,31.45c13.14,0,21.33-12.25,21.84-13.55C49.7,105.39,46.11,100.04,44.37,102.93z"/>
	<path d="M142.54,66.42c-5.09,0-9.27,6.57-8.44,14.78c-1.94,1.32-4.29,2.66-5.79,2.66c-3.96,0,4.06-14.48,4.97-15.26
		c1.28-1.1-4.52-0.74-5.13,0.3c-0.6,1.03-1.93,3.45-3.08,6.23c-1.73,2.86-5.77,9.75-7.92,9.43c-2.06-0.31,4.95-13.41,7.11-14.83
		c1.56-1.03-5.15-0.5-6.15,0.89c0,0-0.54,0.86-1.33,2.21c-2.39,3.54-7.66,10.6-14.02,14.45c-3.57,2.16-5.82,2.78-7.28,2.7
		c7.24-6.05,24.74-21.68,18.38-27.88c-7.58-7.39-21.07,18.76-23.59,23.8c-0.22,0.45-0.72,1.54-1.35,3.08
		c-1.19,0.83-2.67,1.52-4.12,1.48c-4.74-0.13,10.99-16.67,2.93-16.16c-2.63,0.16-5.92,3-8.63,5.89c0.48-1.09,0.83-1.9,0.99-2.23
		c0.64-1.37,0.46-3.75-4.62-1.28c0,0-0.19,0.4-0.51,1.1c-2.99,3.96-6.05,6.17-8.89,7.29c0.37-4.45-2.7-7.58-6.92-6.32
		c-3.03,0.9-7.45,4.1-9.52,9.44c-2.5,6.41-0.21,11.04,4.01,10.6c3.91-0.41,7.07-2.05,11.38-9.98c0.04-0.07,0.07-0.14,0.1-0.21
		c2.97-1.13,5.31-2.86,6.65-3.99c-2.55,5.46-5.51,11.77-5.62,11.95c-0.27,0.43,3.71,0.44,5.34-0.99c0.41-0.36,1.05-1.42,1.81-2.87
		c2.97-3.72,8.95-11.49,9.31-11.38c0.46,0.14,0.36,0.45-0.78,2.33c-3.99,6.63-2.45,10.47,0.64,10.85c1.82,0.22,3.56-0.53,4.83-1.31
		c-3.54,9.68-7.86,25.29,0.45,25.29c9.29,0,14.24-20.12,9.37-25.98c6.13-1.01,11.6-5.68,14.68-8.83c-1.01,3.5-0.84,6.33,2.36,6.33
		c3.7,0,6.7-2.33,9.05-5.23c0.43,1.78,1.7,2.97,4.33,2.97c2.86,0,5.34-1.38,7.26-2.9c0.14,0.5,0.3,1.01,0.47,1.52
		c4.29,12.26-1.03,20.4-6.39,20.4c-7.04,0-4.42-9.31,1.13-11.85c1.96-0.89-5.53-5.49-12.16,1.13c-5.34,5.34-1,17.07,10.06,16.65
		c13.54-0.51,15.76-11.81,15.69-17.68c-0.05-4.23-2.24-9.76-3.84-13.48C145.92,77.29,148.9,66.42,142.54,66.42z M60.63,88.03
		c-0.09,0.04-0.19,0.06-0.3,0.07c-0.15,0.37-0.32,0.78-0.51,1.22c-1.35,3.16-3.66,3.95-4.55,3.74c-1.2-0.28-1.74-2.42-0.48-5.08
		c0.41-0.88,0.86-1.63,1.33-2.26c-0.39-0.44-0.62-0.85-0.58-1.13c0.14-1.1,1.79-2.2,1.79-2.2s0.48,0.67,1.2,1.38
		c0.51-0.16,1.01-0.16,1.49,0.01c0.79,0.28,1.14,0.74,1.09,1.59c0.07,0.01,0.14,0.02,0.21,0.03C61.62,85.45,61.25,87.77,60.63,88.03
		z M88.34,113c-3.42,0-0.71-9.85,3.9-20.48c0.03,0.05,0.1,0.03,0.21-0.07c0.16,0.03,0.32,0.06,0.48,0.08
		C95.19,96.83,92.23,113,88.34,113z M110.4,67.03c2.18,2.18-11.27,15.34-15.23,19.12C100.83,74.64,107.73,64.36,110.4,67.03z
		 M138.28,78.06c-0.79-2.3,1.32-8.54,3.06-7.49C143.22,71.71,140.15,76.25,138.28,78.06z"/>
	<path d="M186.41,49.2c-2.15,2.77-5.51,8.53-8.05,14.35c-0.44-1.31-1.45-2.15-3.49-1.9c-2.67,0.33-7.38,3.04-10.41,9.1
		c-1.66,2.69-6.52,9.99-10.37,9.99c-2.5,0-3.42-1.25-3.39-2.96c2.49,0.13,6.55-0.53,10.13-5.19c5.25-6.83-1.06-8.65-2.09-8.55
		c-1.58,0.15-7.69,0.91-11.19,8.93c-3.84,8.78,1.68,11.14,4.99,11.14c4.56,0,8.08-2.99,10.42-6c0.42,2.48,2.04,4.05,4.41,4.05
		c3.12,0,5.71-2.64,7.5-5.33c0.18,2.18,1.18,3.57,3.38,3.63c6.8,0.19,8.41-5.15,8.54-5.53c0.63-1.83-0.74-3.07-1.53-1.35
		c-0.95,2.07-3.46,3.54-4.88,3.23c-1.63-0.36-0.64-4.63,1.32-9.63c2.57-1.53,9.45-6.12,13.1-13.35
		C200,43.49,191.63,42.47,186.41,49.2z M157.98,68.32c2.56,0.2-2.44,5.7-6.31,5.99C153.17,71.21,156.08,68.17,157.98,68.32z
		 M173.12,71.97c-1.35,3.16-3.99,4.69-5.43,4.42c-1.21-0.23-1.64-1.82-0.39-4.49c1.51-3.2,3.64-5.74,5.4-5.45
		C174.35,66.73,174.71,68.24,173.12,71.97z M183.8,62.28c3.57-7.64,8.12-14.71,8.24-10.89C192.14,54.17,186.38,60.18,183.8,62.28z"
		/>
	<path d="M61.31,85.42c-0.07-0.01-0.14-0.02-0.21-0.03c-0.95-0.18-1.88-0.91-2.58-1.61c-0.72-0.71-1.2-1.38-1.2-1.38
		s-1.65,1.1-1.79,2.2c-0.04,0.29,0.2,0.69,0.58,1.13c1,1.14,3.06,2.48,4.2,2.37c0.11-0.01,0.21-0.03,0.3-0.07
		C61.25,87.77,61.62,85.45,61.31,85.42z"/>
</g>
</svg>
